<?xml version="1.0" encoding="utf-8"?>
<!-- Generator: Adobe Illustrator 19.2.1, SVG Export Plug-In . SVG Version: 6.00 Build 0)  -->
<svg version="1.1" id="Layer_1" xmlns="http://www.w3.org/2000/svg" xmlns:xlink="http://www.w3.org/1999/xlink" x="0px" y="0px"
	 viewBox="0 0 500 500" style="enable-background:new 0 0 500 500;" xml:space="preserve">
<style type="text/css">
	.st0{fill:#283593;}
</style>
<g>
	<path class="st0" d="M323,310.8h-60.8v-24.3h48.7v-73h-48.7v-24.3h73v12.2v109.5H323z M371.7,237.8v-48.7h-24.3v121.7h24.3v-48.7
		h36.5v48.7h24.3V189.2h-24.3v48.7H371.7z M250,298.7v12.2h-66.9h-18.3V189.2H177h73v12.2v17l-4.9-4.9h-56v73h56l4.9-4.9V298.7z
		 M122.3,213.5v97.3H97.9v-97.3H67.5v-24.3h85.2v24.3H122.3z M237.8,237.8v24.3h-24.3v-24.3H237.8z M262.2,213.5h24.3v24.3
		L262.2,213.5z M262.2,262.2l24.3,24.3h-24.3V262.2z"/>
</g>
</svg>
